<svg width="24" height="24" viewBox="0 0 24 24" fill="none" xmlns="http://www.w3.org/2000/svg">
<g clip-path="url(#clip0_1626_1403)">
<path d="M17.5778 20.8041C13.8504 20.8041 10.1363 20.8041 6.39557 20.8041C6.38889 20.7306 6.38221 20.6638 6.38221 20.5903C6.38221 19.3211 6.36217 18.0586 6.38889 16.7894C6.42229 14.9725 7.16377 13.4962 8.59328 12.3673C8.90055 12.1268 9.21451 12.1135 9.57523 12.2538C10.0896 12.4608 10.624 12.6212 11.1851 12.8149C11.1851 12.8483 11.1851 12.9418 11.1851 13.0286C11.1851 14.2511 11.1851 15.4802 11.1851 16.7026C11.1851 17.237 11.5057 17.6044 11.98 17.6044C12.461 17.6111 12.7883 17.237 12.7883 16.6892C12.7883 15.4735 12.7883 14.2577 12.7883 13.042C12.7883 12.9485 12.7883 12.8616 12.7883 12.7614C13.0889 12.688 13.3828 12.6345 13.6634 12.541C13.9239 12.4608 14.1777 12.3473 14.4249 12.2337C14.7522 12.0868 15.0528 12.1068 15.34 12.3272C16.7562 13.4228 17.5244 14.8723 17.5778 16.6558C17.6179 17.9785 17.5845 19.3078 17.5845 20.6304C17.5845 20.6972 17.5845 20.744 17.5778 20.8041Z" fill="#FEAB3D"/>
<path d="M11.979 11.2186C9.77462 11.2186 7.97771 9.40837 7.98439 7.19731C7.99107 4.99961 9.79466 3.21606 11.9924 3.21606C14.2034 3.21606 15.9936 5.01965 15.987 7.23739C15.9803 9.42841 14.1767 11.2186 11.979 11.2186Z" fill="#FEAB3D"/>
<path d="M19.1868 20.7977C19.1868 19.9092 19.1668 19.0341 19.1935 18.1591C19.2336 16.4891 19.1735 14.8391 18.2383 13.2827C18.4186 13.3228 18.5322 13.3362 18.6391 13.3696C19.5342 13.6902 20.436 13.6969 21.3311 13.3696C21.6517 13.256 21.9457 13.2894 22.2262 13.4898C23.3551 14.2914 23.963 15.3802 23.9897 16.763C24.0098 17.8318 23.9964 18.8939 23.9964 19.9627C23.9964 20.4503 23.6691 20.8043 23.1948 20.8043C21.8922 20.811 20.5963 20.8043 19.2937 20.8043C19.267 20.8177 19.2403 20.811 19.1868 20.7977Z" fill="#FEAB3D"/>
<path d="M5.6931 13.3161C5.3257 14.0108 5.04514 14.6989 4.91822 15.447C4.84475 15.9079 4.79131 16.3689 4.78463 16.8365C4.76459 18.0589 4.77795 19.288 4.77795 20.5104C4.77795 20.6039 4.77795 20.6908 4.77795 20.8043C4.68443 20.811 4.60427 20.8177 4.52411 20.8177C3.30836 20.8177 2.09261 20.8177 0.876858 20.8177C0.302383 20.8177 -0.0249344 20.4971 -0.0249344 19.9226C-0.0249344 18.8738 -0.0382944 17.8251 -0.0182546 16.7763C0.00846523 15.3802 0.62302 14.2847 1.76529 13.4898C2.03249 13.3028 2.31305 13.2694 2.62032 13.3762C3.53548 13.7102 4.44395 13.7036 5.3591 13.3696C5.41254 13.3495 5.47266 13.3295 5.5261 13.3228C5.56618 13.3094 5.60626 13.3161 5.6931 13.3161Z" fill="#FEAB3D"/>
<path d="M7.18261 9.62192C7.17593 11.3787 5.73974 12.8149 3.98292 12.8149C2.21273 12.8149 0.776546 11.3654 0.783226 9.5952C0.789906 7.84506 2.23945 6.40887 3.99628 6.41555C5.75311 6.42223 7.18261 7.8651 7.18261 9.62192Z" fill="#FEAB3D"/>
<path d="M19.9943 6.41555C21.7512 6.42223 23.1873 7.85842 23.1873 9.62192C23.1873 11.3921 21.7378 12.8283 19.9609 12.8149C18.2041 12.8083 16.7746 11.3587 16.7813 9.59521C16.788 7.84506 18.2375 6.40887 19.9943 6.41555Z" fill="#FEAB3D"/>
</g>
<defs>
<clipPath id="clip0_1626_1403">
<rect width="24" height="24" fill="white"/>
</clipPath>
</defs>
</svg>
