<svg width="19" height="22" viewBox="0 0 19 22" fill="none" xmlns="http://www.w3.org/2000/svg">
<path d="M18.9935 11.0387C18.9935 14.118 18.9935 17.1907 18.9935 20.2699C18.9935 21.3609 18.3486 22 17.2609 22C12.0761 22 6.89133 22 1.70003 22C0.84676 22 0.221461 21.5417 0.0455951 20.7864C0.00651384 20.6315 0.00651344 20.4701 0.00651344 20.3087C0.00651344 15.0992 0.00651354 9.88321 0 4.67371C0 4.13791 0.182379 3.71185 0.566678 3.33744C1.50463 2.42077 2.43606 1.49765 3.36099 0.568075C3.7518 0.174295 4.20124 0 4.75489 0C8.91704 0.0064554 13.0792 0.0064553 17.2413 0.0064553C18.3291 0.0064553 19 0.677817 19 1.76232C18.9935 4.848 18.9935 7.94659 18.9935 11.0387ZM14.2484 7.05575C12.3985 7.05575 10.9965 7.05575 9.15967 7.05575C9.15967 7.57864 9.15967 8.56793 9.15967 9.0779C11.0095 9.0779 12.405 9.0779 14.2484 9.0779C14.2484 8.56147 14.2484 7.57218 14.2484 7.05575ZM9.15967 13.1125C11.016 13.1125 12.405 13.1125 14.2484 13.1125C14.2484 12.5961 14.2484 11.6052 14.2484 11.0952C12.3985 11.0952 11.003 11.0952 9.15967 11.0952C9.15967 11.6052 9.15967 12.5896 9.15967 13.1125ZM14.2484 15.1298C12.3985 15.1298 10.9965 15.1298 9.15967 15.1298C9.15967 15.6527 9.15967 16.6372 9.15967 17.1472C11.0095 17.1472 12.405 17.1472 14.2484 17.1472C14.2484 16.6307 14.2484 15.6463 14.2484 15.1298ZM4.53994 6.16491C4.14261 6.55868 3.77785 6.92019 3.43264 7.25587C3.88207 7.7142 4.33802 8.1919 4.80699 8.66315C5.23037 9.0892 5.66678 9.08274 6.09667 8.65023C6.63079 8.12089 7.15838 7.58509 7.69249 7.05575C7.86836 6.88145 8.06376 6.72007 8.23312 6.56514C7.82276 6.16491 7.458 5.79695 7.05417 5.40317C6.52657 5.93897 5.97292 6.49413 5.41275 7.06866C5.11313 6.75235 4.82002 6.4554 4.53994 6.16491ZM6.10645 11.0952C5.59188 11.0952 4.59856 11.0952 4.07096 11.0952C4.07096 11.6052 4.07096 12.6026 4.07096 13.1125C4.59856 13.1125 5.58536 13.1125 6.10645 13.1125C6.10645 12.6026 6.10645 11.6116 6.10645 11.0952ZM4.07096 15.1298C4.07096 15.6592 4.07096 16.6372 4.07096 17.1472C4.59856 17.1472 5.59188 17.1472 6.10645 17.1472C6.10645 16.6243 6.10645 15.6398 6.10645 15.1298C5.58536 15.1298 4.60507 15.1298 4.07096 15.1298Z" fill="#FEAB3D"/>
</svg>
