<svg width="11" height="11" viewBox="0 0 11 11" fill="none" xmlns="http://www.w3.org/2000/svg">
<path d="M11.0009 0.875C11.0009 0.653986 10.9131 0.442025 10.7568 0.285744C10.6006 0.129464 10.3886 0.0416668 10.1676 0.0416668L3.50093 0C3.27991 0 3.06795 0.0877975 2.91167 0.244078C2.75539 0.400358 2.66759 0.61232 2.66759 0.833333C2.66759 1.05435 2.75539 1.26631 2.91167 1.42259C3.06795 1.57887 3.27991 1.66667 3.50093 1.66667H8.13426L1.24259 8.575C1.16449 8.65247 1.10249 8.74464 1.06018 8.84619C1.01788 8.94774 0.996094 9.05666 0.996094 9.16667C0.996094 9.27668 1.01788 9.3856 1.06018 9.48715C1.10249 9.5887 1.16449 9.68086 1.24259 9.75833C1.32006 9.83644 1.41223 9.89844 1.51378 9.94074C1.61533 9.98305 1.72425 10.0048 1.83426 10.0048C1.94427 10.0048 2.05319 9.98305 2.15474 9.94074C2.25629 9.89844 2.34846 9.83644 2.42593 9.75833L9.33426 2.85V7.5C9.33426 7.72101 9.42206 7.93298 9.57834 8.08926C9.73462 8.24554 9.94658 8.33333 10.1676 8.33333C10.3886 8.33333 10.6006 8.24554 10.7568 8.08926C10.9131 7.93298 11.0009 7.72101 11.0009 7.5V0.875Z" fill="white"/>
</svg>
